HIERARCHY
ROOT Hips
{
	OFFSET -0.001795 -0.223333 0.028219
	CHANNELS 6 Xposition Yposition Zposition Zrotation Yrotation Xrotation 
	JOINT LeftUpLeg
	{
		OFFSET 0.069520 -0.091406 -0.006815
		CHANNELS 3 Zrotation Yrotation Xrotation
		JOINT LeftLeg
		{
			OFFSET 0.034277 -0.375199 -0.004496
			CHANNELS 3 Zrotation Yrotation Xrotation
			JOINT LeftFoot
			{
				OFFSET -0.013596 -0.397961 -0.043693
				CHANNELS 3 Zrotation Yrotation Xrotation
				JOINT LeftToe
				{
					OFFSET 0.026358 -0.055791 0.119288
					CHANNELS 3 Zrotation Yrotation Xrotation
					End Site
					{
						OFFSET 0.000000 0.000000 0.000000
					}
				}
			}
		}
	}
	JOINT RightUpLeg
	{
		OFFSET -0.067670 -0.090522 -0.004320
		CHANNELS 3 Zrotation Yrotation Xrotation
		JOINT RightLeg
		{
			OFFSET -0.038290 -0.382569 -0.008850
			CHANNELS 3 Zrotation Yrotation Xrotation
			JOINT RightFoot
			{
				OFFSET 0.015774 -0.398415 -0.042312
				CHANNELS 3 Zrotation Yrotation Xrotation
				JOINT RightToe
				{
					OFFSET -0.025372 -0.048144 0.123348
					CHANNELS 3 Zrotation Yrotation Xrotation
					End Site
					{
						OFFSET 0.000000 0.000000 0.000000
					}
				}
			}
		}
	}
	JOINT Spine
	{
		OFFSET -0.002533 0.108963 -0.026696
		CHANNELS 3 Zrotation Yrotation Xrotation
		JOINT Spine1
		{
			OFFSET 0.005487 0.135180 0.001092
			CHANNELS 3 Zrotation Yrotation Xrotation
			JOINT Spine2
			{
				OFFSET 0.001457 0.052922 0.025425
				CHANNELS 3 Zrotation Yrotation Xrotation
				JOINT Neck
				{
					OFFSET -0.002778 0.213870 -0.042857
					CHANNELS 3 Zrotation Yrotation Xrotation
					JOINT Head
					{
						OFFSET 0.005152 0.064970 0.051349
						CHANNELS 3 Zrotation Yrotation Xrotation
						End Site
						{
							OFFSET 0.000000 0.000000 0.000000
						}
					}
				}
				JOINT LeftShoulder
				{
					OFFSET 0.078845 0.121749 -0.034090
					CHANNELS 3 Zrotation Yrotation Xrotation
					JOINT LeftArm
					{
						OFFSET 0.090977 0.030469 -0.008868
						CHANNELS 3 Zrotation Yrotation Xrotation
						JOINT LeftForeArm
						{
							OFFSET 0.259612 -0.012772 -0.027456
							CHANNELS 3 Zrotation Yrotation Xrotation
							JOINT LeftHand
							{
								OFFSET 0.249234 0.008986 -0.001171
								CHANNELS 3 Zrotation Yrotation Xrotation
								End Site
								{
									OFFSET 0.000000 0.000000 0.000000
								}
							}
						}
					}
				}
				JOINT RightShoulder
				{
					OFFSET -0.081759 0.118833 -0.038615
					CHANNELS 3 Zrotation Yrotation Xrotation
					JOINT RightArm
					{
						OFFSET -0.096012 0.032551 -0.009143
						CHANNELS 3 Zrotation Yrotation Xrotation
						JOINT RightForeArm
						{
							OFFSET -0.253742 -0.013329 -0.021401
							CHANNELS 3 Zrotation Yrotation Xrotation
							JOINT RightHand
							{
								OFFSET -0.255298 0.007772 -0.005559
								CHANNELS 3 Zrotation Yrotation Xrotation
								End Site
								{
									OFFSET 0.000000 0.000000 0.000000
								}
							}
						}
					}
				}
			}
		}
	}
}
MOTION
Frames: 10
Frame Time: 0.050000
-0.000572 0.966765 -0.028188 -1.130237 1.212968 -3.235888 4.871322 0.434356 10.175475 -2.061357 0.369472 -9.865940 -2.346279 3.404486 18.613752 0.000000 0.000000 0.000000 -2.023121 -1.029800 12.353616 3.352218 -0.493700 -11.320788 -1.782041 -9.871212 19.232759 0.000000 0.000000 0.000000 -2.522974 -0.128578 6.274345 2.678236 -0.002984 -24.732885 2.657498 14.065048 26.835972 12.908615 -3.096630 -28.403847 0.000000 0.000000 0.000000 -23.767322 -2.186905 -5.105676 -49.677771 -5.093322 -4.773663 -9.400547 -18.575218 1.906774 0.000000 0.000000 0.000000 -10.343658 23.433775 5.155934 -14.558837 54.636300 -7.461410 -18.765504 3.462215 -0.113835 0.000000 0.000000 0.000000 
-0.000806 0.966719 -0.028591 -1.162419 1.237290 -3.237973 4.868639 0.426757 10.020973 -1.966888 0.364064 -9.648905 -2.327506 3.407286 18.527642 0.000000 0.000000 0.000000 -1.963708 -1.029331 12.255195 3.184629 -0.488531 -11.044290 -1.551673 -9.424260 18.909731 0.000000 0.000000 0.000000 -2.477245 -0.131469 6.291477 2.643257 0.004457 -24.703724 2.711165 14.114515 26.799128 12.779470 -3.050723 -28.179692 0.000000 0.000000 0.000000 -23.823177 -2.207620 -5.137402 -49.554191 -5.460457 -4.592680 -9.276118 -18.407769 1.867866 0.000000 0.000000 0.000000 -10.168788 23.379262 5.199299 -14.250893 54.446078 -7.300961 -18.458028 2.509935 0.021622 0.000000 0.000000 0.000000 
-0.000999 0.966902 -0.028958 -1.178488 1.264157 -3.142184 4.828236 0.418896 9.805389 -1.846586 0.358815 -9.510559 -2.323712 3.417998 18.533327 0.000000 0.000000 0.000000 -1.992315 -1.011401 12.084806 3.211922 -0.485377 -10.754518 -1.388084 -9.062259 18.501724 0.000000 0.000000 0.000000 -2.546525 -0.125980 6.226489 2.748285 -0.029239 -24.508410 2.643943 14.069578 26.605853 12.773387 -3.031322 -28.254054 0.000000 0.000000 0.000000 -23.739577 -2.223424 -5.103640 -49.717722 -5.868619 -4.438622 -8.963221 -18.192033 1.798405 0.000000 0.000000 0.000000 -10.047211 23.353511 5.244736 -13.832794 54.350463 -7.120694 -18.570043 2.183093 0.071810 0.000000 0.000000 0.000000 
-0.001191 0.966956 -0.029309 -1.172307 1.337810 -3.163503 4.753553 0.424564 9.815571 -1.696386 0.355107 -9.550726 -2.359078 3.385515 18.555734 0.000000 0.000000 0.000000 -1.917246 -1.026257 12.127114 3.090133 -0.482846 -10.639426 -1.366432 -8.938288 18.148674 0.000000 0.000000 0.000000 -2.635433 -0.119999 6.132277 2.870299 -0.071909 -24.211170 2.524459 13.792090 26.477054 12.765360 -3.121472 -27.971154 0.000000 0.000000 0.000000 -24.121328 -2.283200 -5.092267 -49.422770 -6.228216 -4.240990 -9.021389 -18.310549 1.827801 0.000000 0.000000 0.000000 -9.630788 23.541548 5.444568 -13.355972 53.967010 -6.943921 -18.912287 2.320995 0.058388 0.000000 0.000000 0.000000 
-0.001381 0.966931 -0.029704 -1.200626 1.090150 -3.091890 4.678456 0.429725 9.641595 -1.530714 0.350040 -9.362963 -2.201627 3.557784 18.501066 0.000000 0.000000 0.000000 -1.972237 -1.000656 11.994416 3.234488 -0.479715 -10.498849 -1.238848 -8.690108 17.830557 0.000000 0.000000 0.000000 -2.632412 -0.116418 6.003693 3.055798 -0.129280 -24.062114 2.462645 13.878243 26.486204 12.712982 -3.153373 -27.694665 0.000000 0.000000 0.000000 -24.482041 -2.444361 -5.075865 -49.243598 -6.614042 -4.038295 -9.120952 -18.215695 1.838006 0.000000 0.000000 0.000000 -9.417168 23.490877 5.501662 -12.490341 53.725179 -6.576045 -19.461830 3.090174 -0.041929 0.000000 0.000000 0.000000 
-0.001607 0.966797 -0.030129 -1.148757 0.823736 -3.049102 4.626379 0.437468 9.552003 -1.556784 0.351077 -9.258643 -2.055589 3.719785 18.477679 0.000000 0.000000 0.000000 -2.084098 -0.965257 11.830840 3.273865 -0.475050 -10.370596 -1.080111 -8.432951 17.691968 0.000000 0.000000 0.000000 -2.704619 -0.109662 5.904702 3.124178 -0.166902 -23.716252 2.270313 13.686874 26.243902 12.794791 -3.325635 -27.365026 0.000000 0.000000 0.000000 -24.843569 -2.526517 -4.993071 -49.005370 -6.937126 -3.875250 -9.051432 -18.408090 1.859902 0.000000 0.000000 0.000000 -9.098643 23.735446 5.694577 -11.600662 53.399625 -6.263787 -19.583327 3.774821 -0.134754 0.000000 0.000000 0.000000 
-0.001843 0.966792 -0.030666 -1.120521 0.394013 -3.061075 4.594883 0.456496 9.629219 -1.593117 0.357023 -9.309031 -1.855927 3.966560 18.545890 0.000000 0.000000 0.000000 -2.123975 -0.936802 11.697374 3.312053 -0.467668 -10.236811 -1.001979 -8.327997 17.532107 0.000000 0.000000 0.000000 -2.789709 -0.103992 5.889533 3.251657 -0.216746 -23.524940 2.181887 13.572316 26.077281 12.849676 -3.435829 -27.282227 0.000000 0.000000 0.000000 -25.189984 -2.491888 -4.959894 -49.046548 -7.034769 -3.843830 -9.017682 -18.175902 1.847464 0.000000 0.000000 0.000000 -8.716356 23.684675 5.814855 -10.475311 53.480474 -5.922140 -19.330022 4.813014 -0.276897 0.000000 0.000000 0.000000 
-0.002095 0.966506 -0.031262 -1.058312 0.189657 -3.058634 4.532743 0.464377 9.553748 -1.607261 0.357133 -9.190238 -1.734823 4.089956 18.480331 0.000000 0.000000 0.000000 -2.242098 -0.910425 11.620892 3.311561 -0.463814 -10.177134 -0.807076 -7.990010 17.368908 0.000000 0.000000 0.000000 -2.944533 -0.095946 5.905147 3.414562 -0.272919 -23.313410 2.056758 13.239087 25.966605 12.882200 -3.513145 -27.373602 0.000000 0.000000 0.000000 -25.420226 -2.577333 -4.793800 -49.006404 -7.185409 -3.805398 -9.152500 -18.185821 1.886494 0.000000 0.000000 0.000000 -8.114859 23.946096 6.091587 -9.472792 53.462355 -5.648635 -18.788327 6.132794 -0.451576 0.000000 0.000000 0.000000 
-0.002363 0.966245 -0.031974 -1.016145 -0.173996 -2.997913 4.555420 0.473109 9.572468 -1.755168 0.367512 -9.315550 -1.566367 4.291893 18.518753 0.000000 0.000000 0.000000 -2.267723 -0.875859 11.366570 3.375998 -0.457928 -10.059445 -0.872821 -8.132399 17.279952 0.000000 0.000000 0.000000 -3.061207 -0.086880 5.789388 3.589689 -0.338051 -23.084641 1.988424 13.091444 25.942798 13.034737 -3.648520 -27.453419 0.000000 0.000000 0.000000 -25.444982 -2.573280 -4.660351 -49.012318 -7.235977 -3.823357 -9.660814 -17.990799 1.956629 0.000000 0.000000 0.000000 -7.595389 24.027806 6.282731 -8.007059 53.538615 -5.167540 -18.186113 7.884120 -0.663561 0.000000 0.000000 0.000000 
-0.002640 0.965801 -0.032685 -0.989714 -0.367646 -2.938357 4.590209 0.473158 9.539444 -1.868470 0.374069 -9.395138 -1.459823 4.402229 18.471937 0.000000 0.000000 0.000000 -2.289603 -0.848786 11.131481 3.416403 -0.454575 -9.948320 -0.909475 -8.204667 17.208404 0.000000 0.000000 0.000000 -3.231872 -0.076391 5.719281 3.638344 -0.362994 -22.914038 2.015474 12.514144 25.957116 12.880566 -3.696726 -27.352400 0.000000 0.000000 0.000000 -25.586717 -2.726867 -4.332946 -48.826396 -7.325036 -3.843898 -10.101232 -18.206758 2.073748 0.000000 0.000000 0.000000 -7.103048 24.190591 6.490212 -6.402731 53.299979 -4.650919 -18.205363 9.956226 -0.932898 0.000000 0.000000 0.000000 
